<svg xmlns="http://www.w3.org/2000/svg" width="221" height="363" fill="none" viewBox="0 0 221 363">
  <path stroke="#FFDB6E" stroke-width="4" d="M179 360.5H49L3.691 245.782a12 12 0 0 1-.084-8.596L91 2.5h16.5V190S92 197.5 92 209.5c0 17 9.322 21.349 20.5 23 15.228-2.99 18.899-8.817 21-23 0-7-2.869-10.45-14-19.5V2.5H132l84.553 229.637a28.004 28.004 0 0 1 .197 18.796L179 360.5Z"/>
</svg>
<svg xmlns="http://www.w3.org/2000/svg" width="34" height="37" fill="none" viewBox="0 0 34 37">
  <path stroke="#FFDB6E" stroke-width="4" d="M2 2h30v33H2z"/>
</svg>
<svg xmlns="http://www.w3.org/2000/svg" width="34" height="37" fill="none" viewBox="0 0 34 37">
  <path stroke="#FFDB6E" stroke-width="4" d="M2 2h30v33H2z"/>
</svg>
<svg xmlns="http://www.w3.org/2000/svg" width="570" height="273" fill="none" viewBox="0 0 570 273">
  <path stroke="#FFDB6E" stroke-width="6" d="M567 273C567 123.883 440.744 3 285 3S3 123.883 3 273"/>
</svg>
<svg xmlns="http://www.w3.org/2000/svg" width="34" height="37" fill="none" viewBox="0 0 34 37">
  <path fill="#FFDB6E" stroke="#FFDB6E" stroke-width="4" d="M2 2h30v33H2z"/>
</svg>
<svg xmlns="http://www.w3.org/2000/svg" width="21" height="21" fill="none" viewBox="0 0 21 21">
  <circle cx="10.5" cy="10.5" r="10.5" fill="#FFDB6E"/>
</svg>
<svg xmlns="http://www.w3.org/2000/svg" width="21" height="21" fill="none" viewBox="0 0 21 21">
  <circle cx="10.5" cy="10.5" r="10.5" fill="#FFDB6E"/>
</svg>
<svg xmlns="http://www.w3.org/2000/svg" width="21" height="21" fill="none" viewBox="0 0 21 21">
  <circle cx="10.5" cy="10.5" r="10.5" fill="#FFDB6E"/>
</svg>
<svg xmlns="http://www.w3.org/2000/svg" width="377" height="6" fill="none" viewBox="0 0 377 6">
  <path stroke="#FFDB6E" stroke-width="6" d="M0 3h377"/>
</svg>
<svg xmlns="http://www.w3.org/2000/svg" width="128" height="48" fill="none" viewBox="0 0 128 48">
  <path stroke="#FFDB6E" stroke-width="4" d="M2 2h124v44H2z"/>
</svg>
